999
"DXF R12 Output" (www.mydxf.blogspot.com)
 0 
SECTION
 2 
HEADER
 9 
$ACADVER
 1 
AC1009
 9 
$EXTMIN
 10 
 0 
 20 
 0 
 9 
$EXTMAX
 10 
 8.5 
 20 
 11 
 0 
ENDSEC
 0 
SECTION
 2 
ENTITIES
0
LINE
8
Layer 1
10
76.923343
20
232.149827
11
74.047507
21
231.351159
0
LINE
8
Layer 1
10
74.047507
20
231.351159
11
71.260918
21
230.283682
0
LINE
8
Layer 1
10
71.260918
20
230.283682
11
68.584839
21
228.961825
0
LINE
8
Layer 1
10
68.584839
20
228.961825
11
66.040531
21
227.400015
0
LINE
8
Layer 1
10
66.040531
20
227.400015
11
63.649259
21
225.612681
0
LINE
8
Layer 1
10
63.649259
20
225.612681
11
61.432283
21
223.614251
0
LINE
8
Layer 1
10
61.432283
20
223.614251
11
59.410866
21
221.419152
0
LINE
8
Layer 1
10
59.410866
20
221.419152
11
57.606271
21
219.041813
0
LINE
8
Layer 1
10
57.606271
20
219.041813
11
56.274284
21
216.935857
0
LINE
8
Layer 1
10
56.274284
20
216.935857
11
55.088479
21
214.750100
0
LINE
8
Layer 1
10
55.088479
20
214.750100
11
53.057487
21
210.196315
0
LINE
8
Layer 1
10
53.057487
20
210.196315
11
51.317437
21
205.494722
0
LINE
8
Layer 1
10
51.317437
20
205.494722
11
49.672472
21
200.759584
0
LINE
8
Layer 1
10
49.672472
20
200.759584
11
47.215021
21
193.982226
0
LINE
8
Layer 1
10
47.215021
20
193.982226
11
44.876277
21
187.161017
0
LINE
8
Layer 1
10
44.876277
20
187.161017
11
43.870851
21
183.716524
0
LINE
8
Layer 1
10
43.870851
20
183.716524
11
43.038419
21
180.240136
0
LINE
8
Layer 1
10
43.038419
20
180.240136
11
42.426753
21
176.724873
0
LINE
8
Layer 1
10
42.426753
20
176.724873
11
42.083624
21
173.163760
0
LINE
8
Layer 1
10
42.083624
20
173.163760
11
42.109957
21
168.962539
0
LINE
8
Layer 1
10
42.109957
20
168.962539
11
42.328761
21
166.870197
0
LINE
8
Layer 1
10
42.328761
20
166.870197
11
42.700095
21
164.807064
0
LINE
8
Layer 1
10
42.700095
20
164.807064
11
43.235535
21
162.790914
0
LINE
8
Layer 1
10
43.235535
20
162.790914
11
43.946661
21
160.839521
0
LINE
8
Layer 1
10
43.946661
20
160.839521
11
44.845050
21
158.970659
0
LINE
8
Layer 1
10
44.845050
20
158.970659
11
45.942280
21
157.202100
0
LINE
8
Layer 1
10
45.942280
20
157.202100
11
47.242705
21
155.563182
0
LINE
8
Layer 1
10
47.242705
20
155.563182
11
48.732124
21
154.094570
0
LINE
8
Layer 1
10
48.732124
20
154.094570
11
50.394281
21
152.831008
0
LINE
8
Layer 1
10
50.394281
20
152.831008
11
52.212923
21
151.807240
0
LINE
8
Layer 1
10
52.212923
20
151.807240
11
54.166593
21
151.060313
0
LINE
8
Layer 1
10
54.166593
20
151.060313
11
56.210655
21
150.618967
0
LINE
8
Layer 1
10
56.210655
20
150.618967
11
58.294084
21
150.505488
0
LINE
8
Layer 1
10
58.294084
20
150.505488
11
60.365854
21
150.742160
0
LINE
8
Layer 1
10
60.365854
20
150.742160
11
62.330388
21
151.319311
0
LINE
8
Layer 1
10
62.330388
20
151.319311
11
64.184924
21
152.192534
0
LINE
8
Layer 1
10
64.184924
20
152.192534
11
65.914104
21
153.310809
0
LINE
8
Layer 1
10
65.914104
20
153.310809
11
67.502568
21
154.623120
0
LINE
8
Layer 1
10
67.502568
20
154.623120
11
68.947796
21
156.080788
0
LINE
8
Layer 1
10
68.947796
20
156.080788
11
70.274137
21
157.648939
0
LINE
8
Layer 1
10
70.274137
20
157.648939
11
72.669940
21
160.995450
0
LINE
8
Layer 1
10
72.669940
20
160.995450
11
74.910658
21
164.444996
0
LINE
8
Layer 1
10
74.910658
20
164.444996
11
77.252722
21
167.822760
0
LINE
8
Layer 1
10
77.252722
20
167.822760
11
78.542024
21
169.428729
0
LINE
8
Layer 1
10
78.542024
20
169.428729
11
79.942265
21
170.937940
0
LINE
8
Layer 1
10
79.942265
20
170.937940
11
81.467655
21
172.311049
0
LINE
8
Layer 1
10
81.467655
20
172.311049
11
83.132402
21
173.508710
0
LINE
8
Layer 1
10
83.132402
20
173.508710
11
85.472054
21
174.729289
0
LINE
8
Layer 1
10
85.472054
20
174.729289
11
87.974039
21
175.573231
0
LINE
8
Layer 1
10
87.974039
20
175.573231
11
90.577827
21
176.048686
0
LINE
8
Layer 1
10
90.577827
20
176.048686
11
93.222889
21
176.163800
0
LINE
8
Layer 1
10
93.222889
20
176.163800
11
95.854385
21
175.935520
0
LINE
8
Layer 1
10
95.854385
20
175.935520
11
98.441194
21
175.395996
0
LINE
8
Layer 1
10
98.441194
20
175.395996
11
100.958363
21
174.576230
0
LINE
8
Layer 1
10
100.958363
20
174.576230
11
103.380940
21
173.507220
0
LINE
8
Layer 1
10
103.380940
20
173.507220
11
105.684637
21
172.225176
0
LINE
8
Layer 1
10
105.684637
20
172.225176
11
107.868172
21
170.761128
0
LINE
8
Layer 1
10
107.868172
20
170.761128
11
109.941079
21
169.138332
0
LINE
8
Layer 1
10
109.941079
20
169.138332
11
111.912891
21
167.380048
0
LINE
8
Layer 1
10
111.912891
20
167.380048
11
115.591365
21
163.550036
0
LINE
8
Layer 1
10
115.591365
20
163.550036
11
118.979860
21
159.457150
0
LINE
8
Layer 1
10
118.979860
20
159.457150
11
125.418865
21
151.038637
0
LINE
8
Layer 1
10
125.418865
20
151.038637
11
128.777614
21
146.955101
0
LINE
8
Layer 1
10
128.777614
20
146.955101
11
132.418870
21
143.129720
0
LINE
8
Layer 1
10
132.418870
20
143.129720
11
134.387021
21
141.358569
0
LINE
8
Layer 1
10
134.387021
20
141.358569
11
136.463346
21
139.716281
0
LINE
8
Layer 1
10
136.463346
20
139.716281
11
138.650530
21
138.230521
0
LINE
8
Layer 1
10
138.650530
20
138.230521
11
140.951260
21
136.928950
0
LINE
8
Layer 1
10
140.951260
20
136.928950
11
143.365696
21
135.841688
0
LINE
8
Layer 1
10
143.365696
20
135.841688
11
145.876006
21
135.001150
0
LINE
8
Layer 1
10
145.876006
20
135.001150
11
148.457905
21
134.438442
0
LINE
8
Layer 1
10
148.457905
20
134.438442
11
151.087110
21
134.184670
0
LINE
8
Layer 1
10
151.087110
20
134.184670
11
152.985661
21
134.212798
0
LINE
8
Layer 1
10
152.985661
20
134.212798
11
154.874650
21
134.422884
0
LINE
8
Layer 1
10
154.874650
20
134.422884
11
156.734857
21
134.812134
0
LINE
8
Layer 1
10
156.734857
20
134.812134
11
158.547064
21
135.377750
0
LINE
8
Layer 1
10
158.547064
20
135.377750
11
160.292051
21
136.116937
0
LINE
8
Layer 1
10
160.292051
20
136.116937
11
161.950601
21
137.026898
0
LINE
8
Layer 1
10
161.950601
20
137.026898
11
163.503493
21
138.104838
0
LINE
8
Layer 1
10
163.503493
20
138.104838
11
164.931510
21
139.347960
0
LINE
8
Layer 1
10
164.931510
20
139.347960
11
166.213999
21
140.746328
0
LINE
8
Layer 1
10
166.213999
20
140.746328
11
167.331741
21
142.279488
0
LINE
8
Layer 1
10
167.331741
20
142.279488
11
168.267671
21
143.928878
0
LINE
8
Layer 1
10
168.267671
20
143.928878
11
169.004720
21
145.675940
0
LINE
8
Layer 1
10
169.004720
20
145.675940
11
169.526510
21
147.500015
0
LINE
8
Layer 1
10
169.526510
20
147.500015
11
169.823371
21
149.373826
0
LINE
8
Layer 1
10
169.823371
20
149.373826
11
169.888296
21
151.268910
0
LINE
8
Layer 1
10
169.888296
20
151.268910
11
169.714280
21
153.156800
0
LINE
8
Layer 1
10
169.714280
20
153.156800
11
169.282486
21
155.068808
0
LINE
8
Layer 1
10
169.282486
20
155.068808
11
168.615936
21
156.912998
0
LINE
8
Layer 1
10
168.615936
20
156.912998
11
167.739628
21
158.671083
0
LINE
8
Layer 1
10
167.739628
20
158.671083
11
166.678560
21
160.324780
0
LINE
8
Layer 1
10
166.678560
20
160.324780
11
165.458537
21
161.860668
0
LINE
8
Layer 1
10
165.458537
20
161.860668
11
164.102709
21
163.278866
0
LINE
8
Layer 1
10
164.102709
20
163.278866
11
162.632091
21
164.581379
0
LINE
8
Layer 1
10
162.632091
20
164.581379
11
161.067700
21
165.770210
0
LINE
8
Layer 1
10
161.067700
20
165.770210
11
157.737701
21
167.828150
0
LINE
8
Layer 1
10
157.737701
20
167.828150
11
154.213251
21
169.543696
0
LINE
8
Layer 1
10
154.213251
20
169.543696
11
150.567033
21
171.025410
0
LINE
8
Layer 1
10
150.567033
20
171.025410
11
146.871730
21
172.381850
0
LINE
8
Layer 1
10
146.871730
20
172.381850
11
143.175252
21
173.734243
0
LINE
8
Layer 1
10
143.175252
20
173.734243
11
139.524551
21
175.204346
0
LINE
8
Layer 1
10
139.524551
20
175.204346
11
135.990897
21
176.901536
0
LINE
8
Layer 1
10
135.990897
20
176.901536
11
132.645560
21
178.935190
0
LINE
8
Layer 1
10
132.645560
20
178.935190
11
131.070638
21
180.110024
0
LINE
8
Layer 1
10
131.070638
20
180.110024
11
129.587120
21
181.397821
0
LINE
8
Layer 1
10
129.587120
20
181.397821
11
128.215757
21
182.801046
0
LINE
8
Layer 1
10
128.215757
20
182.801046
11
126.977300
21
184.322160
0
LINE
8
Layer 1
10
126.977300
20
184.322160
11
125.894624
21
185.961799
0
LINE
8
Layer 1
10
125.894624
20
185.961799
11
124.993505
21
187.707304
0
LINE
8
Layer 1
10
124.993505
20
187.707304
11
124.299018
21
189.541194
0
LINE
8
Layer 1
10
124.299018
20
189.541194
11
123.836240
21
191.445990
0
LINE
8
Layer 1
10
123.836240
20
191.445990
11
123.603638
21
194.053831
0
LINE
8
Layer 1
10
123.603638
20
194.053831
11
123.765629
21
196.670934
0
LINE
8
Layer 1
10
123.765629
20
196.670934
11
124.250973
21
199.263488
0
LINE
8
Layer 1
10
124.250973
20
199.263488
11
124.988430
21
201.797682
0
LINE
8
Layer 1
10
124.988430
20
201.797682
11
126.936208
21
206.681673
0
LINE
8
Layer 1
10
126.936208
20
206.681673
11
129.078010
21
211.491680
0
LINE
8
Layer 1
10
129.078010
20
211.491680
11
130.062538
21
213.938183
0
LINE
8
Layer 1
10
130.062538
20
213.938183
11
130.901300
21
216.437406
0
LINE
8
Layer 1
10
130.901300
20
216.437406
11
131.523394
21
218.988194
0
LINE
8
Layer 1
10
131.523394
20
218.988194
11
131.857920
21
221.589396
0
LINE
8
Layer 1
10
131.857920
20
221.589396
11
131.823250
21
224.230119
0
LINE
8
Layer 1
10
131.823250
20
224.230119
11
131.361076
21
226.827844
0
LINE
8
Layer 1
10
131.361076
20
226.827844
11
130.435457
21
229.273979
0
LINE
8
Layer 1
10
130.435457
20
229.273979
11
129.787624
21
230.406265
0
LINE
8
Layer 1
10
129.787624
20
230.406265
11
129.010450
21
231.459931
0
LINE
8
Layer 1
10
129.010450
20
231.459931
11
127.251755
21
233.150102
0
LINE
8
Layer 1
10
127.251755
20
233.150102
11
125.189228
21
234.461994
0
LINE
8
Layer 1
10
125.189228
20
234.461994
11
122.916921
21
235.417016
0
LINE
8
Layer 1
10
122.916921
20
235.417016
11
120.528890
21
236.036577
0
LINE
8
Layer 1
10
120.528890
20
236.036577
11
118.099255
21
236.363511
0
LINE
8
Layer 1
10
118.099255
20
236.363511
11
115.647684
21
236.470487
0
LINE
8
Layer 1
10
115.647684
20
236.470487
11
110.728220
21
236.289199
0
LINE
8
Layer 1
10
110.728220
20
236.289199
11
102.235387
21
235.623905
0
LINE
8
Layer 1
10
102.235387
20
235.623905
11
93.765519
21
234.711660
0
LINE
8
Layer 1
10
93.765519
20
234.711660
11
85.325782
21
233.553342
0
LINE
8
Layer 1
10
85.325782
20
233.553342
11
76.923343
21
232.149827
0
LINE
8
Layer 1
10
76.923343
20
232.149827
11
76.923343
21
232.149827
 0 
ENDSEC
 0 
EOF